<svg id="Group_68" data-name="Group 68" xmlns="http://www.w3.org/2000/svg" xmlns:xlink="http://www.w3.org/1999/xlink" width="227.431" height="41.904" viewBox="0 0 227.431 41.904">
  <defs>
    <clipPath id="clip-path">
      <rect id="Rectangle_54" data-name="Rectangle 54" width="227.431" height="41.904" fill="#b09dff"/>
    </clipPath>
  </defs>
  <g id="Group_72" data-name="Group 72" transform="translate(0 0)" clip-path="url(#clip-path)">
    <path id="Path_165" data-name="Path 165" d="M225.442,31.491a10.5,10.5,0,0,0-9.2,0,7.783,7.783,0,0,0-3.235,3.033,8.135,8.135,0,0,0-1.163,4.3,8.492,8.492,0,0,0,1.163,4.347,8.036,8.036,0,0,0,3.235,2.982,10.071,10.071,0,0,0,9.2,0,8.038,8.038,0,0,0,3.235-2.982,8.5,8.5,0,0,0,1.162-4.347,8.138,8.138,0,0,0-1.162-4.3,7.784,7.784,0,0,0-3.235-3.033m-.809,9.756a4.047,4.047,0,0,1-1.567,1.618,4.382,4.382,0,0,1-4.448,0,3.738,3.738,0,0,1-1.567-1.618,5.154,5.154,0,0,1,0-4.852,4.041,4.041,0,0,1,1.567-1.618,4.726,4.726,0,0,1,4.448,0,4.4,4.4,0,0,1,1.567,1.618,5.571,5.571,0,0,1,0,4.852" transform="translate(-124.581 -17.894)" fill="#b09dff"/>
    <path id="Path_166" data-name="Path 166" d="M132.231,34.776a4.7,4.7,0,0,1,2.376-.556,4.8,4.8,0,0,1,3.842,1.87l2.881-2.628a7.681,7.681,0,0,0-2.932-2.275,10.31,10.31,0,0,0-4.043-.758,9.754,9.754,0,0,0-4.549,1.062,7.883,7.883,0,0,0-3.185,2.982,8.709,8.709,0,0,0,0,8.694,7.986,7.986,0,0,0,3.185,3.033,9.754,9.754,0,0,0,4.549,1.062,9.45,9.45,0,0,0,4.043-.809,7.228,7.228,0,0,0,2.932-2.275l-2.881-2.628a4.853,4.853,0,0,1-3.842,1.921,4.751,4.751,0,0,1-2.376-.606,3.744,3.744,0,0,1-1.567-1.618,5.571,5.571,0,0,1,0-4.852,4.044,4.044,0,0,1,1.567-1.618" transform="translate(-73.779 -17.894)" fill="#b09dff"/>
    <path id="Path_167" data-name="Path 167" d="M277.413,39.647c0,2.578-1.011,3.892-3.083,3.892s-3.084-1.314-3.084-3.892V30.8H266.7v9a7.546,7.546,0,0,0,1.971,5.56,8.97,8.97,0,0,0,11.222,0,7.57,7.57,0,0,0,2.022-5.56v-9h-4.5Z" transform="translate(-156.838 -18.113)" fill="#b09dff"/>
    <path id="Path_168" data-name="Path 168" d="M179.142,31.23h-4.6V47.405h12.334V43.816h-7.734Z" transform="translate(-102.644 -18.366)" fill="#b09dff"/>
    <path id="Path_169" data-name="Path 169" d="M329.147,32.236a10.715,10.715,0,0,0-4.7-1.011h-7.683V47.4h7.683a10.711,10.711,0,0,0,4.7-.96,7.532,7.532,0,0,0,3.185-2.831,8.428,8.428,0,0,0,0-8.542,7.229,7.229,0,0,0-3.185-2.831M327.58,42.6a4.8,4.8,0,0,1-3.336,1.162h-2.881v-8.9h2.881a4.6,4.6,0,0,1,3.336,1.213,4.1,4.1,0,0,1,1.264,3.235A4.248,4.248,0,0,1,327.58,42.6" transform="translate(-186.281 -18.362)" fill="#b09dff"/>
    <path id="Path_170" data-name="Path 170" d="M521.485,31.23l-5.509,9.351-5.712-9.351h-3.791V47.405h4.246v-8.34l4.145,6.773h2.022l4.2-6.975v8.542h4.2V31.23Z" transform="translate(-297.845 -18.366)" fill="#b09dff"/>
    <path id="Path_171" data-name="Path 171" d="M373.392,31.23h-4.6V47.405h12.334V43.816h-7.734Z" transform="translate(-216.878 -18.366)" fill="#b09dff"/>
    <path id="Path_172" data-name="Path 172" d="M438.341,31.467h-.1a9.346,9.346,0,0,0-4.5-1.011,10,10,0,0,0-4.651,1.062l-.859.556-.809.607a7.691,7.691,0,0,0-1.516,1.87,5.2,5.2,0,0,0-.708,1.517,7.935,7.935,0,0,0-.4,1.567c-.03.29-.043.581-.047.873,0-.03,0-.06,0-.09a9.78,9.78,0,0,1,.051-1.213,3.538,3.538,0,0,1-1.011-1.112,8.9,8.9,0,0,1,.3,2.325c0,.064,0,.128-.007.192a8.892,8.892,0,0,0-.3-2.114,9.884,9.884,0,0,0-.4-1.112l-.455-.859-.455-.657a.5.5,0,0,0-.2-.253,8.793,8.793,0,0,0-2.578-2.123,9.8,9.8,0,0,0-4.6-1.061,10.008,10.008,0,0,0-4.651,1.061,8.211,8.211,0,0,0-4.347,7.329,7.989,7.989,0,0,0,1.162,4.347,7.885,7.885,0,0,0,3.185,2.982,9.449,9.449,0,0,0,4.651,1.112h.1a9.4,9.4,0,0,0,4.5-1.112l.4-.2a8.34,8.34,0,0,0,2.325-2.073l.505-.708a8.947,8.947,0,0,0,.91-2.274c.03-.122.054-.245.078-.368a3.232,3.232,0,0,1,1.172.823c.064.23.133.459.216.684a3.282,3.282,0,0,1,.556,1.112h.051a7.938,7.938,0,0,0,1.921,2.174l.606.455.657.354a9.454,9.454,0,0,0,4.651,1.112,9.247,9.247,0,0,0,4.6-1.112,8.341,8.341,0,0,0,3.235-2.982,8.492,8.492,0,0,0,1.162-4.347,8.131,8.131,0,0,0-4.4-7.329m-19.46,9.78a4.046,4.046,0,0,1-1.567,1.617,4.38,4.38,0,0,1-4.448,0,3.743,3.743,0,0,1-1.567-1.617,5.158,5.158,0,0,1,0-4.853,4.046,4.046,0,0,1,1.567-1.617,4.726,4.726,0,0,1,4.448,0,4.4,4.4,0,0,1,1.567,1.617,5.572,5.572,0,0,1,0,4.853m18.652-.024a4.047,4.047,0,0,1-1.567,1.618,4.382,4.382,0,0,1-4.448,0,3.738,3.738,0,0,1-1.567-1.618,4.8,4.8,0,0,1-.607-2.426,5.011,5.011,0,0,1,.3-1.769,3.783,3.783,0,0,1,.3-.657,4.041,4.041,0,0,1,1.567-1.618,4.726,4.726,0,0,1,4.448,0,5.114,5.114,0,0,1,1.567,6.47" transform="translate(-238.812 -17.894)" fill="#b09dff"/>
    <path id="Path_173" data-name="Path 173" d="M21.948,19.6c2.327-1.706,4.8-3.392,6.323-5.345C32.618,8.7,28.17,0,28.17,0L20.275,7.9c-.044.052-.091.105-.134.158h0c-.09.109-.172.215-.257.323-3.435,4.436-1.677,7.988,2.063,11.224" transform="translate(-10.61 -0.001)" fill="#b09dff"/>
    <path id="Path_174" data-name="Path 174" d="M6.743,26.138,2.4,30.536a8.188,8.188,0,0,0,0,11.575L17.56,57.275s4.448-8.643.1-14.254-16.327-9-10.918-16.883" transform="translate(0 -15.371)" fill="#b09dff"/>
    <path id="Path_175" data-name="Path 175" d="M59.483,54.147c-2.327,1.706-4.8,3.392-6.323,5.345-4.347,5.56.1,14.254.1,14.254l7.895-7.895c.044-.052.091-.105.134-.158h0c.089-.109.171-.215.256-.323,3.435-4.436,1.678-7.988-2.063-11.224" transform="translate(-30.142 -31.843)" fill="#b09dff"/>
    <path id="Path_176" data-name="Path 176" d="M53.261,0s-4.448,8.643-.1,14.254,16.327,9,10.918,16.883l4.347-4.4a8.189,8.189,0,0,0,0-11.575Z" transform="translate(-30.141 0)" fill="#b09dff"/>
  </g>
</svg>
