<svg xmlns="http://www.w3.org/2000/svg" width="49.815" height="49.815" viewBox="0 0 49.815 49.815">
  <g id="Group_167" data-name="Group 167" transform="translate(-278 -3609)">
    <path id="Path_326" data-name="Path 326" d="M320.908,0A24.908,24.908,0,1,1,296,24.908,24.944,24.944,0,0,1,320.908,0" transform="translate(-18 3609)" fill="#6a4ce5"/>
    <path id="Union_7" data-name="Union 7" d="M4.442,15.631V9.42l10.267,3.938a.553.553,0,0,0,.4,0L25.373,9.42v6.212c0,1.493-4.685,2.7-10.466,2.7S4.442,17.124,4.442,15.631Zm23.222.3V12.284a.652.652,0,0,1,.492-.627V10.93a.778.778,0,0,1,0-1.527V7.077L15.106,12.082a.556.556,0,0,1-.4,0L.355,6.576a.554.554,0,0,1,0-1.034L14.709.037a.553.553,0,0,1,.4,0L29.46,5.542a.554.554,0,0,1,0,1.034l-.966.37V9.4a.778.778,0,0,1,0,1.527v.727a.653.653,0,0,1,.492.627V15.93Z" transform="translate(288 3624.833)" fill="#fff"/>
  </g>
</svg>
